<mxfile host="app.diagrams.net" modified="2020-11-06T18:26:56.401Z" agent="5.0 (Windows NT 10.0; Win64; x64) AppleWebKit/537.36 (KHTML, like Gecko) Chrome/86.0.4240.111 Safari/537.36" etag="0hDZlquRfgK18LcWsq4P" version="13.9.1" type="github">
  <diagram id="c1xbFQ9t794LeByU9lGS" name="Page-1">
    <mxGraphModel dx="1038" dy="1648" grid="1" gridSize="10" guides="1" tooltips="1" connect="1" arrows="1" fold="1" page="1" pageScale="1" pageWidth="850" pageHeight="1100" math="0" shadow="0">
      <root>
        <mxCell id="0" />
        <mxCell id="1" parent="0" />
        <mxCell id="JQnGYL7EJJIbPJ83N0xq-1" value="Internet" style="shape=document;whiteSpace=wrap;html=1;boundedLbl=1;" vertex="1" parent="1">
          <mxGeometry x="90" y="90" width="120" height="80" as="geometry" />
        </mxCell>
        <mxCell id="JQnGYL7EJJIbPJ83N0xq-2" value="" style="rounded=0;whiteSpace=wrap;html=1;" vertex="1" parent="1">
          <mxGeometry x="290" y="-10" width="460" height="330" as="geometry" />
        </mxCell>
      </root>
    </mxGraphModel>
  </diagram>
</mxfile>
